<svg width="14" height="14" viewBox="0 0 14 14" fill="none" xmlns="http://www.w3.org/2000/svg">
<path fill-rule="evenodd" clip-rule="evenodd" d="M7.00033 2.00002C5.89576 2.00002 5.00033 2.89545 5.00033 4.00002C5.00033 4.62194 5.2834 5.17719 5.73024 5.54507L6.12502 5.8701L4.70233 9.00002H9.29832L7.87563 5.8701L8.27041 5.54507C8.71725 5.17719 9.00033 4.62194 9.00033 4.00002C9.00033 2.89545 8.10489 2.00002 7.00033 2.00002ZM2.00033 10.3334V12H12.0003V10.3334H2.00033ZM3.23772 9.00002H1.66699C1.11471 9.00002 0.666992 9.44773 0.666992 10V12.3334C0.666992 12.8856 1.11471 13.3334 1.66699 13.3334H12.3337C12.8859 13.3334 13.3337 12.8856 13.3337 12.3334V10C13.3337 9.44773 12.8859 9.00002 12.3337 9.00002H10.7629L9.49508 6.21074C10.0162 5.62286 10.3337 4.84832 10.3337 4.00002C10.3337 2.15907 8.84127 0.666687 7.00033 0.666687C5.15938 0.666687 3.66699 2.15907 3.66699 4.00002C3.66699 4.84832 3.9844 5.62286 4.50557 6.21074L3.23772 9.00002Z" fill="#fff"/>
</svg>
