<svg width="18" height="16" viewBox="0 0 18 16"  xmlns="http://www.w3.org/2000/svg" class="svg-image">
<path fill-rule="evenodd" clip-rule="evenodd" d="M4.77525 3.83334H1.63095C0.940595 3.83334 0.380951 4.39298 0.380951 5.08334V14.25C0.380951 14.9404 0.940594 15.5 1.63095 15.5H15.7976C16.488 15.5 17.0476 14.9404 17.0476 14.25V5.08334C17.0476 4.39298 16.488 3.83334 15.7976 3.83334H12.6533L14.7538 1.47031L13.5081 0.363037L10.4234 3.83334H7.00517L3.92046 0.363037L2.67478 1.47031L4.77525 3.83334ZM2.04762 5.50001V13.8333H15.381V5.50001H2.04762ZM8.08928 8.86089V10.7452L9.50253 9.72453L8.08928 8.86089ZM6.42262 8.11795C6.42262 7.14178 7.49149 6.54232 8.32443 7.05134L10.9061 8.629C11.6681 9.09467 11.7101 10.1861 10.9861 10.709L8.40448 12.5735C7.57782 13.1705 6.42262 12.5798 6.42262 11.5601V8.11795Z" fill="currentColor"/>
</svg>
