<svg width="18" height="18" viewBox="0 0 18 18" fill="none" xmlns="http://www.w3.org/2000/svg">
<path d="M9.00033 0.666687C13.6003 0.666687 17.3337 4.40002 17.3337 9.00002C17.3337 13.6 13.6003 17.3334 9.00033 17.3334C4.40033 17.3334 0.666992 13.6 0.666992 9.00002C0.666992 4.40002 4.40033 0.666687 9.00033 0.666687ZM4.01949 11.8467C5.24283 13.6717 7.07949 14.8334 9.13366 14.8334C11.1878 14.8334 13.0245 13.6725 14.247 11.8467C12.86 10.5507 11.0319 9.83086 9.13366 9.83335C7.23512 9.83065 5.40668 10.5505 4.01949 11.8467ZM9.00033 8.16669C9.66337 8.16669 10.2993 7.9033 10.7681 7.43445C11.2369 6.96561 11.5003 6.32973 11.5003 5.66669C11.5003 5.00365 11.2369 4.36776 10.7681 3.89892C10.2993 3.43008 9.66337 3.16669 9.00033 3.16669C8.33728 3.16669 7.7014 3.43008 7.23256 3.89892C6.76372 4.36776 6.50033 5.00365 6.50033 5.66669C6.50033 6.32973 6.76372 6.96561 7.23256 7.43445C7.7014 7.9033 8.33728 8.16669 9.00033 8.16669Z" fill="#838BA1"/>
</svg>
