<svg width="16" height="20" viewBox="0 0 16 20" fill="none" xmlns="http://www.w3.org/2000/svg">
<path d="M8 0.833313L14.8475 2.35498C15.0326 2.39612 15.198 2.49912 15.3167 2.64698C15.4353 2.79485 15.5 2.97874 15.5 3.16831V11.4908C15.4999 12.3139 15.2967 13.1243 14.9082 13.85C14.5198 14.5757 13.9582 15.1943 13.2733 15.6508L8 19.1666L2.72667 15.6508C2.04189 15.1943 1.48038 14.5759 1.09196 13.8504C0.70353 13.1248 0.500197 12.3146 0.5 11.4916V3.16831C0.500033 2.97874 0.564698 2.79485 0.683325 2.64698C0.801951 2.49912 0.967447 2.39612 1.1525 2.35498L8 0.833313ZM11.71 6.85165L7.585 10.9758L5.22833 8.61915L4.05 9.79748L7.58583 13.3333L12.8892 8.02998L11.71 6.85165Z" fill="#838BA1"/>
</svg>
